HIERARCHY
ROOT Hips
{
	OFFSET	25.1661	58.2345	-36.1134
	CHANNELS 6 Xposition Yposition Zposition Zrotation Yrotation Xrotation
	JOINT Chest
	{
		OFFSET	0.0000	16.3830	0.0000
		CHANNELS 3 Zrotation Yrotation Xrotation
		JOINT LeftCollar
		{
			OFFSET	3.8100	32.7660	-3.8100
			CHANNELS 3 Zrotation Yrotation Xrotation
			JOINT LeftUpArm
			{
				OFFSET	14.5367	0.0000	3.8951
				CHANNELS 3 Zrotation Yrotation Xrotation
				JOINT LeftLowArm
				{
					OFFSET	30.2895	0.0000	0.0000
					CHANNELS 3 Zrotation Yrotation Xrotation
					JOINT LeftHand
					{
						OFFSET	27.2415	0.0000	0.0000
						CHANNELS 3 Zrotation Yrotation Xrotation
						End Site
						{
							OFFSET	20.3835	0.0000	0.0000
						}
					}
				}
			}
		}
		JOINT Neck
		{
			OFFSET	0.0000	32.7660	0.0000
			CHANNELS 3 Zrotation Yrotation Xrotation
			JOINT Head
			{
				OFFSET	0.0000	19.6215	0.0000
				CHANNELS 3 Zrotation Yrotation Xrotation
				End Site
				{
					OFFSET	0.0000	0.0000	10.1600
				}
			}
		}
		JOINT RightCollar
		{
			OFFSET	-3.8100	32.7660	-3.8100
			CHANNELS 3 Zrotation Yrotation Xrotation
			JOINT RightUpArm
			{
				OFFSET	-14.5367	0.0000	3.8951
				CHANNELS 3 Zrotation Yrotation Xrotation
				JOINT RightLowArm
				{
					OFFSET	-30.2895	0.0000	0.0000
					CHANNELS 3 Zrotation Yrotation Xrotation
					JOINT RightHand
					{
						OFFSET	-27.2415	0.0000	0.0000
						CHANNELS 3 Zrotation Yrotation Xrotation
						End Site
						{
							OFFSET	-20.3835	0.0000	0.0000
						}
					}
				}
			}
		}
	}
	JOINT LeftUpLeg
	{
		OFFSET	9.3345	0.0000	0.0000
		CHANNELS 3 Zrotation Yrotation Xrotation
		JOINT LeftLowLeg
		{
			OFFSET	0.0000	-45.5295	0.0000
			CHANNELS 3 Zrotation Yrotation Xrotation
			JOINT LeftFoot
			{
				OFFSET	0.0000	-44.1960	0.0000
				CHANNELS 3 Zrotation Yrotation Xrotation
				End Site
				{
					OFFSET	0.0000	0.0000	26.4795
				}
			}
		}
	}
	JOINT RightUpLeg
	{
		OFFSET	-9.3345	0.0000	0.0000
		CHANNELS 3 Zrotation Yrotation Xrotation
		JOINT RightLowLeg
		{
			OFFSET	0.0000	-45.5295	0.0000
			CHANNELS 3 Zrotation Yrotation Xrotation
			JOINT RightFoot
			{
				OFFSET	0.0000	-44.1960	0.0000
				CHANNELS 3 Zrotation Yrotation Xrotation
				End Site
				{
					OFFSET	0.0000	0.0000	26.4795
				}
			}
		}
	}
}
MOTION
Frames: 25
Frame Time: 0.0166666666667
25.1661	58.2345	-36.1134	-0.1230	-2.4113	45.1440	3.6388	-6.2325	25.1078	2.1831	-0.1437	-8.5549	58.5964	-82.0915	-90.4459	7.2706	-18.1478	-23.6586	-38.9126	-18.4985	-96.5638	-1.9047	1.8265	-18.2831	-1.9047	1.8265	-18.2831	-8.7431	7.3560	-0.7168	-101.8077	63.0426	-105.8120	-15.0001	25.1574	2.0464	-25.5349	-6.0482	7.1303	-6.4311	30.0585	-117.9177	-28.3264	12.3841	86.7381	3.8603	5.3665	-12.0572	3.9509	-19.5048	-114.0848	16.2453	6.1264	76.8286	9.8413	-5.7614	-5.8625	
25.1661	58.1340	-36.1134	-0.1104	-2.3399	45.2935	3.6035	-6.2692	25.1808	2.1812	-0.1078	-8.6154	58.7316	-82.1713	-90.5013	7.4602	-18.0752	-23.7063	-39.0027	-18.5590	-96.5920	-1.8468	1.8450	-18.3379	-1.8468	1.8450	-18.3379	-8.6971	7.4854	-0.7073	-101.6707	62.9139	-105.2735	-15.1668	24.9957	1.6864	-25.2508	-5.9501	7.6839	-6.4575	30.1661	-118.0966	-28.4575	12.3456	86.7696	3.6636	5.3383	-12.1038	3.8871	-19.5489	-114.1783	16.3755	5.8590	77.0959	9.6803	-5.9427	-6.1787	
24.9673	58.1465	-35.9122	-0.1109	-2.2762	45.5819	3.5717	-6.2479	25.1720	2.2523	-0.0925	-8.8099	58.4163	-82.2871	-90.2243	7.6283	-17.9799	-23.6761	-39.1571	-18.6394	-96.4830	-1.7749	1.8351	-18.4142	-1.7749	1.8351	-18.4142	-8.6323	7.5573	-0.7881	-101.6134	62.8165	-104.9119	-15.2853	24.8590	1.4204	-25.2280	-5.9693	7.9157	-6.5634	30.1741	-118.4215	-28.5049	12.2604	86.8148	3.4729	5.3235	-12.1235	3.9800	-19.5432	-114.4383	16.4267	5.7615	77.1824	9.5454	-6.0650	-6.2868	
24.8576	58.1742	-35.8404	-0.1088	-2.2062	45.9494	3.6042	-6.2539	24.8791	2.2078	-0.0364	-8.6885	59.3718	-82.2366	-91.1012	7.6543	-17.8731	-23.7235	-39.2072	-18.7049	-96.4320	-1.7335	1.8224	-18.3893	-1.7335	1.8224	-18.3893	-8.5591	7.6865	-0.7211	-101.5667	62.7859	-104.5411	-15.4374	24.7361	1.2281	-25.1353	-5.9932	8.0703	-6.5771	30.3794	-118.6772	-28.7188	12.3486	86.7042	3.3433	5.3297	-12.1585	3.9312	-19.4772	-114.5879	16.4067	5.6017	77.0895	9.4364	-6.2158	-6.3459	
24.6660	58.3235	-35.7725	-0.1035	-2.1508	46.1320	3.6142	-6.2636	24.7366	2.2061	-0.0315	-8.6059	59.2373	-82.2863	-90.7898	7.7505	-17.8401	-23.8955	-39.1959	-18.7760	-96.4729	-1.7021	1.8095	-18.3785	-1.7021	1.8095	-18.3785	-8.4452	7.8735	-0.5917	-101.4803	62.8050	-104.0328	-15.5888	24.6431	1.1238	-25.1604	-6.0363	8.1581	-6.5624	30.4736	-118.7174	-28.8420	12.3420	86.5860	3.2641	5.3351	-12.1790	3.9096	-19.4638	-114.6299	16.4902	5.5430	77.1678	9.3966	-6.3592	-6.5066	
24.5643	58.4015	-35.6211	-0.1010	-2.1357	46.1615	3.5923	-6.2478	24.7955	2.2106	-0.0405	-8.6181	59.4263	-82.4000	-90.7895	7.8713	-17.7366	-24.0250	-39.1784	-18.8615	-96.6020	-1.6635	1.7894	-18.3899	-1.6635	1.7894	-18.3899	-8.3670	7.9918	-0.5549	-101.3533	62.8522	-103.6764	-15.6724	24.6135	1.0325	-25.2440	-5.9733	8.3402	-6.5475	30.5041	-118.6912	-28.8265	12.2983	86.5580	3.2420	5.2820	-12.1233	3.5966	-19.3664	-114.1970	16.2527	5.4185	76.8323	9.3344	-6.2885	-6.4821	
24.4118	58.6863	-35.5140	-0.0853	-2.0925	45.9729	3.5734	-6.2640	25.0955	2.1341	-0.0569	-8.6543	59.9036	-82.4477	-91.1315	7.8719	-17.6446	-24.0076	-39.1645	-18.9590	-96.6888	-1.6304	1.7688	-18.4303	-1.6304	1.7688	-18.4303	-8.3127	8.0707	-0.5692	-101.2668	62.9282	-103.4078	-15.7780	24.5935	0.9811	-25.3238	-5.8829	8.6329	-6.3640	30.6455	-118.2442	-28.9007	12.2523	86.3521	3.2031	5.1795	-12.0068	3.1704	-19.2350	-113.3508	15.9869	5.3183	76.3887	9.2568	-6.2550	-6.4483	
24.1848	59.1048	-35.3348	-0.0841	-2.1056	45.7015	3.5335	-6.2358	25.4129	2.1153	-0.0726	-8.6837	59.3510	-82.7445	-90.5762	8.0073	-17.6589	-23.9745	-39.1095	-19.0545	-96.6151	-1.6146	1.7500	-18.4447	-1.6146	1.7500	-18.4447	-8.2645	8.1460	-0.5338	-101.2152	63.0300	-103.2038	-15.9011	24.5712	0.9877	-25.3266	-5.9026	8.7302	-6.1321	30.8310	-117.6973	-28.9503	12.1974	86.1332	3.1403	5.0752	-11.8438	2.3576	-18.9932	-111.9632	15.4554	5.0543	75.4523	9.2144	-6.2279	-6.2887	
23.8655	59.8058	-35.1305	-0.1100	-2.1159	45.3614	3.5115	-6.2250	25.6392	2.0794	-0.0555	-8.5265	59.5592	-82.8331	-90.7943	8.0763	-17.6641	-23.9762	-39.1289	-18.9646	-96.6615	-1.5826	1.7659	-18.3596	-1.5826	1.7659	-18.3596	-8.1784	8.3111	-0.3651	-101.0888	63.1235	-102.9445	-15.9173	24.5326	1.0312	-25.2374	-5.8116	8.9687	-5.8458	30.9962	-117.1532	-28.9191	12.1171	86.0093	3.0546	4.9362	-11.6884	1.3752	-18.5556	-110.2980	14.8638	4.7186	74.5346	9.1515	-6.3328	-6.3257	
23.3583	60.6240	-34.7680	-0.1191	-2.1234	45.1134	3.4832	-6.2413	25.7729	1.9341	-0.0574	-8.1705	59.4552	-83.0322	-90.4902	8.3909	-17.9565	-24.0851	-39.0242	-18.8803	-96.6353	-1.5763	1.8122	-18.2873	-1.5763	1.8122	-18.2873	-8.0477	8.5888	-0.1427	-100.7451	63.1500	-102.4150	-15.7759	24.4794	1.0996	-25.2730	-5.7120	9.0773	-5.4589	31.3117	-116.3335	-29.1082	12.1202	85.5195	2.9629	4.8308	-11.5376	0.7451	-18.2543	-109.2325	14.3516	4.5409	73.9314	9.1697	-6.2572	-6.3224	
23.0848	61.1255	-34.5587	-0.0923	-2.1488	44.9613	3.3919	-6.3144	25.5735	1.8315	-0.0415	-7.7026	59.1913	-83.1747	-90.0961	8.6332	-18.0637	-24.0918	-39.1079	-18.9946	-96.5371	-1.5584	1.9355	-18.0824	-1.5584	1.9355	-18.0824	-7.9403	8.8292	0.3143	-100.5383	63.1599	-102.1236	-15.5029	24.4253	1.0017	-25.5203	-5.5590	9.2974	-5.3394	31.4430	-115.9323	-29.1524	12.0625	85.3562	2.8752	4.7486	-11.4767	0.3518	-17.9750	-108.5624	13.9559	4.4114	73.5621	9.1743	-6.1909	-6.1348	
22.7993	61.4800	-34.4187	-0.0227	-2.2238	44.7997	3.2365	-6.3524	25.5614	1.7240	-0.0510	-7.4059	58.8506	-83.3045	-89.6720	8.7465	-18.3885	-23.9728	-38.9157	-18.9522	-96.6107	-1.5675	2.0444	-17.9762	-1.5675	2.0444	-17.9762	-7.8869	8.9339	0.5279	-100.4975	63.3339	-101.9461	-15.4658	24.3983	0.7586	-25.7558	-5.4451	9.5122	-5.1961	31.6367	-115.3906	-29.2978	12.1155	85.0368	2.9113	4.7187	-11.4232	-0.1526	-17.8980	-108.0325	13.7592	4.1150	73.3070	9.1219	-6.1541	-6.0191	
22.6292	61.7006	-34.3010	-0.0224	-2.3038	44.5889	3.1412	-6.3207	25.7092	1.6182	-0.0614	-7.2802	58.6765	-83.3708	-89.4626	8.7345	-18.4566	-23.9159	-38.9773	-18.9896	-96.4114	-1.5887	2.0981	-17.9436	-1.5887	2.0981	-17.9436	-7.8662	9.1207	0.6591	-100.2499	63.5260	-101.4903	-15.6617	24.3535	0.5712	-25.5407	-5.4417	9.5102	-5.1088	31.8312	-114.8608	-29.4390	12.0531	84.7709	2.9521	4.6984	-11.3933	-0.4098	-17.6902	-107.4494	13.5417	4.0298	73.0597	9.1328	-6.0774	-6.0317	
22.4490	61.9557	-34.1419	-0.0344	-2.3575	44.4845	3.0043	-6.3446	25.4551	1.5985	0.0121	-6.8878	58.6232	-83.3979	-89.3694	8.7432	-18.4522	-23.9015	-39.0880	-19.1019	-96.3510	-1.5581	2.1661	-17.7592	-1.5581	2.1661	-17.7592	-7.7490	9.3092	0.9739	-100.2986	63.7443	-101.3452	-15.4596	24.2350	0.4577	-25.8596	-5.3376	9.5892	-5.0672	31.9630	-114.5002	-29.5574	12.1086	84.5555	3.1237	4.6682	-11.3215	-0.6128	-17.4968	-107.0416	13.3324	3.9223	72.8705	9.1309	-5.9894	-6.0648	
22.2690	62.1619	-34.0123	-0.0446	-2.3814	44.4771	2.9587	-6.3246	25.4276	1.5368	-0.0077	-6.8358	58.1838	-83.6676	-89.2690	8.8517	-18.4918	-23.5830	-39.1520	-19.1217	-96.2025	-1.5475	2.1806	-17.7348	-1.5475	2.1806	-17.7348	-7.7153	9.3495	0.9761	-100.3160	63.8319	-101.2042	-15.3385	24.1679	0.3708	-26.0397	-5.3036	9.6043	-5.0389	32.0600	-114.3046	-29.6646	12.0741	84.3937	3.1479	4.6748	-11.2989	-0.6262	-17.4431	-107.0083	13.2240	3.7183	72.9029	8.9916	-5.7886	-6.0012	
22.1069	62.1982	-33.9610	-0.0656	-2.4287	44.6287	2.9332	-6.2734	25.2470	1.4698	-0.0439	-6.7773	58.1445	-83.6416	-89.1579	8.8281	-18.5155	-23.6798	-39.1343	-19.0928	-96.1292	-1.5397	2.1877	-17.7159	-1.5397	2.1877	-17.7159	-7.7625	9.3512	0.9646	-100.3438	63.9363	-101.1344	-15.3238	24.1108	0.2729	-26.0797	-5.2488	9.5010	-5.0793	32.1551	-114.3542	-29.7304	12.0866	84.2676	3.2781	4.6760	-11.0900	-0.8840	-17.1663	-106.9777	12.9401	3.5025	72.7333	8.9435	-5.7804	-5.9245	
21.8467	62.3304	-33.9922	-0.0735	-2.4482	44.6154	2.8857	-6.2510	25.2294	1.4708	-0.0570	-6.7230	57.9432	-83.6912	-88.9043	8.8333	-18.5773	-23.7630	-39.0778	-19.0678	-96.0676	-1.5443	2.1839	-17.6920	-1.5443	2.1839	-17.6920	-7.7765	9.3535	0.9709	-100.3701	64.0147	-101.0862	-15.2370	24.0567	0.2135	-26.2896	-5.1571	9.4861	-5.0119	32.1761	-114.2998	-29.7549	12.0249	84.3008	3.2338	4.7133	-11.0064	-0.9299	-16.9997	-106.9430	12.8047	3.4384	72.7250	9.0037	-5.7147	-5.5738	
21.6743	62.3732	-34.0154	-0.0853	-2.4648	44.5323	2.8477	-6.2220	25.3084	1.4489	-0.0838	-6.6614	57.8976	-83.7182	-88.7923	8.8688	-18.6082	-23.7841	-39.0714	-19.1576	-96.0666	-1.5490	2.1847	-17.6862	-1.5490	2.1847	-17.6862	-7.7729	9.3502	0.9643	-100.4549	64.1816	-100.9344	-15.4018	23.9813	-0.0029	-26.3804	-5.1062	9.5095	-4.9348	32.1955	-114.1779	-29.7670	11.9704	84.2927	3.2065	4.7320	-10.9324	-0.9568	-16.9654	-106.8665	12.7935	3.4301	72.7330	9.1603	-5.7458	-5.2461	
21.6566	62.3682	-34.0211	-0.1281	-2.5029	44.3348	2.8443	-6.1767	25.4385	1.3927	-0.1104	-6.5703	57.3532	-83.8011	-88.2154	8.9575	-18.6888	-23.7880	-39.0589	-19.1951	-96.0944	-1.5593	2.1922	-17.6482	-1.5593	2.1922	-17.6482	-7.7626	9.3685	1.0239	-100.4862	64.3417	-100.8215	-15.4950	23.9653	-0.0768	-26.4300	-5.0571	9.5156	-4.7299	32.3444	-113.7847	-29.8511	11.8741	84.1908	3.1209	4.7425	-10.9221	-1.2357	-16.6933	-106.4726	12.4560	3.2547	72.5976	9.0705	-5.6650	-5.1346	
21.4352	62.4940	-34.0035	-0.1521	-2.5285	44.4050	2.8952	-6.1571	25.1918	1.3043	-0.1329	-6.3732	57.3931	-83.8083	-88.2949	8.9688	-18.8781	-23.6947	-38.9928	-19.3221	-96.2990	-1.5761	2.2321	-17.5335	-1.5761	2.2321	-17.5335	-7.7722	9.3918	1.2090	-100.4960	64.3574	-100.9332	-15.3803	24.0074	0.0723	-26.5169	-4.9963	9.5556	-4.6815	32.4677	-113.6762	-29.9392	11.7954	83.9957	3.1096	4.7361	-10.9333	-1.5198	-16.4937	-106.4020	12.1923	3.0232	72.4730	8.8471	-5.5933	-5.0624	
21.2489	62.5756	-34.0361	-0.1435	-2.5322	44.5047	2.9071	-6.1654	25.0063	1.2718	-0.1344	-6.2737	57.5136	-83.8306	-88.4801	8.9401	-18.9340	-23.4930	-38.9677	-19.4358	-96.2561	-1.5776	2.2443	-17.4854	-1.5776	2.2443	-17.4854	-7.7629	9.4236	1.3534	-100.4328	64.2966	-101.0308	-15.2311	24.0707	0.2545	-26.6689	-4.8561	9.6716	-4.7023	32.5591	-113.7660	-30.0162	11.7892	83.9406	3.0827	4.7159	-10.9507	-1.6274	-16.4789	-106.5663	12.1324	2.9254	72.4880	8.8367	-5.5725	-5.0057	
21.2281	62.5235	-34.1236	-0.1320	-2.5244	44.4737	2.9022	-6.1824	25.0146	1.1944	-0.1415	-6.1938	58.0925	-83.8465	-89.1001	8.9433	-18.9400	-23.3163	-39.0032	-19.4572	-96.0950	-1.5462	2.3030	-17.4258	-1.5462	2.3030	-17.4258	-7.7971	9.4428	1.3831	-100.3629	64.2868	-101.0483	-15.1023	24.1304	0.3016	-26.9147	-4.6972	9.8473	-4.6735	32.5870	-113.7635	-30.0488	11.6704	83.8973	2.8797	4.7206	-10.9166	-1.7563	-16.4864	-106.6408	12.0650	2.8148	72.5099	8.9175	-5.5527	-4.9562	
21.2182	62.4438	-34.2532	-0.1214	-2.5190	44.2804	2.8709	-6.1903	25.1229	1.1773	-0.1505	-6.0465	58.5151	-83.8164	-89.5048	8.9163	-18.9884	-23.2221	-38.9749	-19.4666	-95.8773	-1.5320	2.3138	-17.3680	-1.5320	2.3138	-17.3680	-7.8033	9.4473	1.4309	-100.5012	64.3426	-101.2487	-15.0968	24.1202	0.4590	-27.0384	-4.6108	9.8431	-4.5700	32.7659	-113.7336	-30.1770	11.7687	83.9794	2.7901	4.7213	-10.8991	-1.8630	-16.3974	-106.5230	11.9682	2.7253	72.5371	8.9105	-5.5653	-4.8633	
21.0963	62.4126	-34.3582	-0.1155	-2.5095	44.0815	2.8988	-6.2109	25.1526	1.1153	-0.1713	-5.8373	58.7840	-83.7633	-89.7122	8.9843	-19.0396	-23.3031	-38.9957	-19.3748	-95.7790	-1.5523	2.3617	-17.2333	-1.5523	2.3617	-17.2333	-7.8332	9.4577	1.5577	-100.5376	64.3734	-101.2291	-15.1274	24.1108	0.4975	-27.0429	-4.5860	9.7179	-4.4942	32.8506	-113.6260	-30.2424	11.7724	84.0269	2.7355	4.7384	-11.0138	-1.9118	-16.4017	-106.4027	11.9787	2.6523	72.5721	8.9320	-5.5944	-4.8075	
21.0475	62.3692	-34.4301	-0.1137	-2.5013	43.9625	2.9424	-6.2257	25.1403	1.0592	-0.1921	-5.6942	58.7627	-83.7315	-89.6465	9.0260	-19.0722	-23.3371	-38.9913	-19.3556	-95.7839	-1.6061	2.3737	-17.1629	-1.6061	2.3737	-17.1629	-7.8584	9.4747	1.6532	-100.5005	64.3742	-101.1177	-15.1245	24.1260	0.4748	-27.0481	-4.5530	9.6392	-4.5268	32.9781	-113.5822	-30.3746	11.7605	83.9580	2.7605	4.7397	-11.0086	-1.9468	-16.2913	-106.3845	11.8655	2.6235	72.6683	8.9929	-5.6239	-4.8788	
